<svg width="204" height="59" viewBox="0 0 204 59" fill="none" xmlns="http://www.w3.org/2000/svg">
<path d="M1.096 44.664C0.712 44.088 0.52 43.512 0.52 42.936C0.52 42.488 0.616 42.072 0.808 41.688C0.936 41.304 1.096 40.952 1.288 40.632H1.384L1.288 40.536C1.736 39.896 2.44 39.064 3.4 38.04C4.424 37.016 5.512 36.088 6.664 35.256C7.816 34.424 8.744 33.976 9.448 33.912L10.024 33.528C10.344 33.016 10.824 32.536 11.464 32.088C12.168 31.576 12.776 31.16 13.288 30.84L13.864 30.936L13.768 30.552L14.056 30.36L13.768 29.4C13.128 29.144 12.296 28.824 11.272 28.44C10.312 28.056 9.416 27.576 8.584 27C7.816 26.36 7.432 25.624 7.432 24.792C7.432 24.152 8.008 23.256 9.16 22.104C10.312 20.952 11.688 19.8 13.288 18.648C14.952 17.432 16.52 16.408 17.992 15.576C19.528 14.744 20.616 14.328 21.256 14.328C22.088 14.008 22.696 13.496 23.08 12.792C23.464 12.088 23.816 11.448 24.136 10.872C24.52 10.232 25.032 9.912 25.672 9.912C26.504 9.912 27.208 10.328 27.784 11.16C28.424 11.992 28.872 12.728 29.128 13.368C29.064 13.624 28.872 13.848 28.552 14.04C28.296 14.232 28.104 14.488 27.976 14.808C27.208 15.448 26.568 16.248 26.056 17.208C25.608 18.104 25.16 19 24.712 19.896L22.984 20.856L22.696 20.472H22.6C22.344 20.792 22.088 21.08 21.832 21.336C21.576 21.592 21.384 21.88 21.256 22.2C21 22.456 20.744 22.84 20.488 23.352C20.296 23.8 20.008 24.056 19.624 24.12L19.528 23.928C19.848 22.904 20.168 21.88 20.488 20.856C20.808 19.768 21.16 18.712 21.544 17.688L21.736 17.592L21.928 16.152C21.288 16.152 20.68 16.312 20.104 16.632C19.528 16.952 18.888 17.08 18.184 17.016C17.928 17.208 17.48 17.592 16.84 18.168C16.264 18.744 15.688 19.256 15.112 19.704C14.536 20.152 14.088 20.408 13.768 20.472C13.384 21.176 12.808 21.848 12.04 22.488C11.336 23.128 10.984 23.896 10.984 24.792C10.984 25.176 11.176 25.432 11.56 25.56C11.944 25.624 12.296 25.656 12.616 25.656V26.232L12.808 26.136L14.344 26.52L14.632 26.232C15.464 26.424 16.488 26.744 17.704 27.192C18.984 27.576 20.104 28.12 21.064 28.824C22.088 29.528 22.6 30.456 22.6 31.608C22.6 32.056 22.504 32.504 22.312 32.952C22.12 33.4 21.864 33.848 21.544 34.296L20.008 35.832L17.608 35.64C17.16 35.96 16.392 36.248 15.304 36.504C14.216 36.696 13.192 36.888 12.232 37.08C11.336 37.272 10.888 37.496 10.888 37.752L10.024 36.984C9.704 37.56 9.224 37.848 8.584 37.848C7.944 37.848 7.304 37.848 6.664 37.848C6.088 37.848 5.416 38.2 4.648 38.904C3.944 39.608 3.304 40.376 2.728 41.208C2.152 42.104 1.8 42.84 1.672 43.416L1.096 44.664ZM44.386 44.664L42.946 42.36C42.882 41.976 42.754 41.592 42.562 41.208C42.434 40.824 42.37 40.408 42.37 39.96C42.37 39.32 42.402 38.744 42.466 38.232C42.53 37.656 42.594 37.048 42.658 36.408L43.33 34.872L43.234 34.68C43.362 34.424 43.458 34.168 43.522 33.912C43.65 33.592 43.746 33.304 43.81 33.048L43.426 32.76C42.978 32.76 42.338 33.208 41.506 34.104C40.738 34.936 39.842 35.768 38.818 36.6C37.858 37.432 36.738 37.848 35.458 37.848C34.626 37.848 33.858 37.592 33.154 37.08C32.45 36.568 32.13 35.8 32.194 34.776L32.098 34.584C32.802 33.304 33.41 31.992 33.922 30.648C34.434 29.304 34.978 27.992 35.554 26.712L34.978 25.656L34.69 25.752L34.21 25.56L33.25 26.52L31.906 26.808L32.098 27.288H31.906L30.946 27.576L30.754 27.96H30.178L30.082 28.536C29.762 28.856 29.41 29.208 29.026 29.592C28.642 29.976 28.194 30.2 27.682 30.264L21.922 35.736L21.826 35.448C21.826 35 21.986 34.648 22.306 34.392C22.626 34.072 22.914 33.784 23.17 33.528L23.266 33.336L23.554 33.144L23.65 33.24L23.938 32.568H23.842C23.97 32.44 24.098 32.28 24.226 32.088C24.418 31.832 24.642 31.704 24.898 31.704H25.09C25.09 31.704 25.09 31.64 25.09 31.512C25.474 30.936 25.986 30.424 26.626 29.976H26.914L27.202 29.688L27.106 29.496L28.066 29.112C28.002 28.472 28.514 27.768 29.602 27C30.69 26.232 31.874 25.56 33.154 24.984C34.434 24.344 35.33 24.024 35.842 24.024C36.546 24.024 37.378 24.216 38.338 24.6C39.298 24.92 39.778 25.528 39.778 26.424C39.778 28.216 39.458 29.656 38.818 30.744C38.178 31.832 37.826 32.536 37.762 32.856L38.05 33.048C38.818 33.048 39.426 32.824 39.874 32.376C40.322 31.864 40.77 31.352 41.218 30.84C41.73 30.328 42.338 30.04 43.042 29.976C42.978 29.912 43.01 29.88 43.138 29.88C43.266 29.816 43.33 29.848 43.33 29.976C43.586 29.528 44.162 28.824 45.058 27.864C45.954 26.84 46.882 25.88 47.842 24.984C48.802 24.088 49.474 23.64 49.858 23.64C50.562 23.64 51.362 23.896 52.258 24.408C53.154 24.92 53.602 25.56 53.602 26.328C53.602 26.648 53.346 27.256 52.834 28.152C52.386 28.984 51.842 29.88 51.202 30.84C50.562 31.8 49.922 32.664 49.282 33.432C48.706 34.136 48.258 34.552 47.938 34.68C47.362 35.704 46.562 36.888 45.538 38.232C44.578 39.512 44.098 40.792 44.098 42.072C44.098 42.52 44.162 42.936 44.29 43.32C44.418 43.704 44.482 44.088 44.482 44.472L44.386 44.664ZM56.1303 40.152C55.4263 40.152 54.9143 39.832 54.5943 39.192C54.3383 38.616 54.2103 38.04 54.2103 37.464C54.2103 35.8 54.5943 34.072 55.3623 32.28C56.1943 30.488 56.9943 28.856 57.7623 27.384C58.5943 25.848 59.0103 24.664 59.0103 23.832C59.0103 23.448 58.7863 23.256 58.3383 23.256C58.1463 23.256 57.8583 23.32 57.4743 23.448V23.064L59.7783 20.376V20.28C60.0983 19.96 60.3863 19.64 60.6423 19.32C60.8983 19 61.1543 18.712 61.4103 18.456L62.2743 17.88C62.9783 17.944 63.6503 18.136 64.2903 18.456C64.9943 18.712 65.4423 19.256 65.6343 20.088L65.5383 20.184C65.6023 20.696 65.3783 21.24 64.8663 21.816C64.3543 22.392 63.9063 22.84 63.5223 23.16C63.1383 23.864 62.6903 24.536 62.1783 25.176C61.7303 25.752 61.3143 26.392 60.9303 27.096V28.056L60.5463 28.824H60.3543C60.1623 29.208 59.9703 29.624 59.7783 30.072C59.6503 30.52 59.5863 31 59.5863 31.512L60.0663 32.28C60.2583 32.088 60.6103 31.8 61.1223 31.416C61.6983 30.968 62.2103 30.52 62.6583 30.072C63.1063 29.624 63.3303 29.304 63.3303 29.112L64.3863 28.152C64.7063 27.192 65.4103 26.168 66.4983 25.08C67.5863 23.928 68.5143 23.032 69.2823 22.392L69.5703 21.624C69.9543 21.432 70.3383 21.208 70.7223 20.952C71.1703 20.696 71.6183 20.568 72.0663 20.568C72.5783 20.568 73.0263 20.696 73.4103 20.952C73.8583 21.208 74.3063 21.464 74.7543 21.72C74.7543 21.976 74.7543 22.296 74.7543 22.68C74.8183 23 74.8503 23.32 74.8503 23.64C74.8503 24.664 74.5623 25.624 73.9863 26.52C73.4103 27.416 72.8343 28.344 72.2583 29.304C71.6823 30.264 71.3943 31.448 71.3943 32.856C71.3943 33.048 71.3943 33.496 71.3943 34.2C71.4583 34.84 71.5543 35.48 71.6823 36.12C71.8743 36.696 72.1623 36.984 72.5463 36.984L75.6183 35.352H75.8103C75.9383 34.968 76.1623 34.616 76.4823 34.296C76.8663 33.976 77.2823 33.816 77.7303 33.816L77.8263 33.912C77.8263 34.232 77.5383 34.712 76.9623 35.352C76.4503 35.992 75.8743 36.6 75.2343 37.176C74.6583 37.752 74.2423 38.168 73.9863 38.424C73.7303 38.488 73.4423 38.552 73.1223 38.616C72.8023 38.616 72.4823 38.68 72.1623 38.808L71.8743 38.328C70.4663 38.2 69.2823 37.72 68.3223 36.888C67.4263 35.992 66.9783 34.84 66.9783 33.432C66.9783 32.984 67.0743 32.184 67.2663 31.032C67.4583 29.816 67.6823 28.632 67.9383 27.48C68.2583 26.328 68.4823 25.528 68.6103 25.08C67.8423 25.592 67.1063 26.392 66.4023 27.48C65.6983 28.504 65.0583 29.368 64.4823 30.072C63.8423 30.328 63.1703 31 62.4663 32.088C61.8263 33.112 61.1543 34.264 60.4503 35.544C59.7463 36.76 59.0423 37.848 58.3383 38.808C57.6343 39.704 56.8983 40.152 56.1303 40.152ZM77.0365 40.152C76.3325 40.152 75.8205 39.832 75.5005 39.192C75.2445 38.616 75.1165 38.04 75.1165 37.464C75.1165 35.8 75.5005 34.072 76.2685 32.28C77.1005 30.488 77.9005 28.856 78.6685 27.384C79.5005 25.848 79.9165 24.664 79.9165 23.832C79.9165 23.448 79.6925 23.256 79.2445 23.256C79.0525 23.256 78.7645 23.32 78.3805 23.448V23.064L80.6845 20.376V20.28C81.0045 19.96 81.2925 19.64 81.5485 19.32C81.8045 19 82.0605 18.712 82.3165 18.456L83.1805 17.88C83.8845 17.944 84.5565 18.136 85.1965 18.456C85.9005 18.712 86.3485 19.256 86.5405 20.088L86.4445 20.184C86.5085 20.696 86.2845 21.24 85.7725 21.816C85.2605 22.392 84.8125 22.84 84.4285 23.16C84.0445 23.864 83.5965 24.536 83.0845 25.176C82.6365 25.752 82.2205 26.392 81.8365 27.096V28.056L81.4525 28.824H81.2605C81.0685 29.208 80.8765 29.624 80.6845 30.072C80.5565 30.52 80.4925 31 80.4925 31.512L80.9725 32.28C81.1645 32.088 81.5165 31.8 82.0285 31.416C82.6045 30.968 83.1165 30.52 83.5645 30.072C84.0125 29.624 84.2365 29.304 84.2365 29.112L85.2925 28.152C85.6125 27.192 86.3165 26.168 87.4045 25.08C88.4925 23.928 89.4205 23.032 90.1885 22.392L90.4765 21.624C90.8605 21.432 91.2445 21.208 91.6285 20.952C92.0765 20.696 92.5245 20.568 92.9725 20.568C93.4845 20.568 93.9325 20.696 94.3165 20.952C94.7645 21.208 95.2125 21.464 95.6605 21.72C95.6605 21.976 95.6605 22.296 95.6605 22.68C95.7245 23 95.7565 23.32 95.7565 23.64C95.7565 24.664 95.4685 25.624 94.8925 26.52C94.3165 27.416 93.7405 28.344 93.1645 29.304C92.5885 30.264 92.3005 31.448 92.3005 32.856C92.3005 33.048 92.3005 33.496 92.3005 34.2C92.3645 34.84 92.4605 35.48 92.5885 36.12C92.7805 36.696 93.0685 36.984 93.4525 36.984L96.5245 35.352H96.7165C96.8445 34.968 97.0685 34.616 97.3885 34.296C97.7725 33.976 98.1885 33.816 98.6365 33.816L98.7325 33.912C98.7325 34.232 98.4445 34.712 97.8685 35.352C97.3565 35.992 96.7805 36.6 96.1405 37.176C95.5645 37.752 95.1485 38.168 94.8925 38.424C94.6365 38.488 94.3485 38.552 94.0285 38.616C93.7085 38.616 93.3885 38.68 93.0685 38.808L92.7805 38.328C91.3725 38.2 90.1885 37.72 89.2285 36.888C88.3325 35.992 87.8845 34.84 87.8845 33.432C87.8845 32.984 87.9805 32.184 88.1725 31.032C88.3645 29.816 88.5885 28.632 88.8445 27.48C89.1645 26.328 89.3885 25.528 89.5165 25.08C88.7485 25.592 88.0125 26.392 87.3085 27.48C86.6045 28.504 85.9645 29.368 85.3885 30.072C84.7485 30.328 84.0765 31 83.3725 32.088C82.7325 33.112 82.0605 34.264 81.3565 35.544C80.6525 36.76 79.9485 37.848 79.2445 38.808C78.5405 39.704 77.8045 40.152 77.0365 40.152ZM98.4228 58.296C97.2708 58.296 96.0868 57.944 94.8708 57.24C93.7188 56.536 92.7587 55.64 91.9907 54.552C91.2227 53.464 90.8387 52.344 90.8387 51.192L91.1267 50.616C91.8307 51.32 92.3427 52.056 92.6627 52.824C92.9187 53.656 93.3027 54.36 93.8148 54.936C94.3908 55.512 95.3508 55.8 96.6948 55.8C97.0148 55.8 97.3028 55.768 97.5588 55.704C97.8148 55.64 98.0708 55.576 98.3268 55.512C98.9028 55.704 99.7668 55.32 100.919 54.36C102.071 53.464 103.255 52.312 104.471 50.904C105.751 49.56 106.839 48.216 107.735 46.872C108.695 45.592 109.207 44.664 109.271 44.088C110.359 42.616 111.351 41.048 112.247 39.384C113.143 37.784 114.007 36.216 114.839 34.68L114.935 33.432L115.799 33.048L115.703 32.856V31.416L118.007 27.384L117.911 27C116.311 28.984 114.647 31.032 112.919 33.144C111.255 35.192 109.559 37.208 107.831 39.192C107.447 39.576 106.999 39.8 106.487 39.864C105.975 39.992 105.463 40.056 104.951 40.056C103.927 40.056 103.159 39.704 102.647 39C102.135 38.36 101.879 37.56 101.879 36.6C101.879 35.384 102.103 34.232 102.551 33.144C103.063 31.992 103.607 30.936 104.183 29.976L104.087 29.688C104.599 29.24 104.983 28.632 105.239 27.864C105.559 27.032 105.911 26.328 106.295 25.752C104.567 26.968 102.871 28.344 101.207 29.88C99.6068 31.416 98.0068 32.92 96.4068 34.392L96.3108 34.2C96.3108 34.008 96.6628 33.496 97.3668 32.664C98.1348 31.768 99.0628 30.744 100.151 29.592C101.303 28.44 102.455 27.288 103.607 26.136C104.823 24.92 105.879 23.864 106.775 22.968C107.735 22.072 108.375 21.496 108.695 21.24L112.055 20.376C112.375 20.248 112.919 20.376 113.687 20.76C114.455 21.08 114.839 21.432 114.839 21.816C114.839 22.2 114.519 22.776 113.879 23.544C113.239 24.248 112.759 24.76 112.439 25.08H112.343L112.535 25.464L110.423 27.576L110.327 28.152L109.655 28.344C109.527 28.472 109.367 28.664 109.175 28.92C109.047 29.112 109.047 29.368 109.175 29.688C108.471 29.944 108.119 30.264 108.119 30.648C108.119 30.776 108.119 30.936 108.119 31.128C108.183 31.256 108.247 31.416 108.311 31.608L107.351 32.184L107.543 32.472C107.223 32.6 107.063 32.952 107.063 33.528L107.159 34.488L107.351 34.776C107.351 35.16 107.287 35.512 107.159 35.832C107.031 36.152 106.935 36.504 106.871 36.888L107.063 37.08C107.639 37.016 108.535 36.376 109.751 35.16C110.967 33.88 112.247 32.344 113.591 30.552C114.935 28.76 116.119 27.064 117.143 25.464C118.231 23.864 118.935 22.712 119.255 22.008C119.575 21.432 119.895 20.888 120.215 20.376C120.535 19.864 121.015 19.608 121.655 19.608H122.519C123.031 19.608 123.575 19.768 124.151 20.088C124.791 20.408 125.111 20.888 125.111 21.528C125.111 21.848 124.855 22.616 124.343 23.832C123.831 25.048 123.191 26.488 122.423 28.152C121.719 29.816 120.951 31.48 120.119 33.144C119.287 34.808 118.551 36.248 117.911 37.464C117.271 38.68 116.823 39.448 116.567 39.768C116.503 40.152 116.375 40.696 116.183 41.4C115.991 42.168 115.703 42.648 115.319 42.84C114.359 44.632 113.239 46.264 111.959 47.736C110.743 49.272 109.559 50.872 108.407 52.536L106.775 53.304C106.519 53.56 106.295 53.816 106.103 54.072C105.911 54.392 105.655 54.648 105.335 54.84H105.047C104.087 55.8 103.095 56.6 102.071 57.24C101.111 57.944 99.8948 58.296 98.4228 58.296ZM120.346 44.664C119.962 44.088 119.77 43.512 119.77 42.936C119.77 42.488 119.866 42.072 120.058 41.688C120.186 41.304 120.346 40.952 120.538 40.632H120.634L120.538 40.536C120.986 39.896 121.69 39.064 122.65 38.04C123.674 37.016 124.762 36.088 125.914 35.256C127.066 34.424 127.994 33.976 128.698 33.912L129.274 33.528C129.594 33.016 130.074 32.536 130.714 32.088C131.418 31.576 132.026 31.16 132.538 30.84L133.114 30.936L133.018 30.552L133.306 30.36L133.018 29.4C132.378 29.144 131.546 28.824 130.522 28.44C129.562 28.056 128.666 27.576 127.834 27C127.066 26.36 126.682 25.624 126.682 24.792C126.682 24.152 127.258 23.256 128.41 22.104C129.562 20.952 130.938 19.8 132.538 18.648C134.202 17.432 135.77 16.408 137.242 15.576C138.778 14.744 139.866 14.328 140.506 14.328C141.338 14.008 141.946 13.496 142.33 12.792C142.714 12.088 143.066 11.448 143.386 10.872C143.77 10.232 144.282 9.912 144.922 9.912C145.754 9.912 146.458 10.328 147.034 11.16C147.674 11.992 148.122 12.728 148.378 13.368C148.314 13.624 148.122 13.848 147.802 14.04C147.546 14.232 147.354 14.488 147.226 14.808C146.458 15.448 145.818 16.248 145.306 17.208C144.858 18.104 144.41 19 143.962 19.896L142.234 20.856L141.946 20.472H141.85C141.594 20.792 141.338 21.08 141.082 21.336C140.826 21.592 140.634 21.88 140.506 22.2C140.25 22.456 139.994 22.84 139.738 23.352C139.546 23.8 139.258 24.056 138.874 24.12L138.778 23.928C139.098 22.904 139.418 21.88 139.738 20.856C140.058 19.768 140.41 18.712 140.794 17.688L140.986 17.592L141.178 16.152C140.538 16.152 139.93 16.312 139.354 16.632C138.778 16.952 138.138 17.08 137.434 17.016C137.178 17.208 136.73 17.592 136.09 18.168C135.514 18.744 134.938 19.256 134.362 19.704C133.786 20.152 133.338 20.408 133.018 20.472C132.634 21.176 132.058 21.848 131.29 22.488C130.586 23.128 130.234 23.896 130.234 24.792C130.234 25.176 130.426 25.432 130.81 25.56C131.194 25.624 131.546 25.656 131.866 25.656V26.232L132.058 26.136L133.594 26.52L133.882 26.232C134.714 26.424 135.738 26.744 136.954 27.192C138.234 27.576 139.354 28.12 140.314 28.824C141.338 29.528 141.85 30.456 141.85 31.608C141.85 32.056 141.754 32.504 141.562 32.952C141.37 33.4 141.114 33.848 140.794 34.296L139.258 35.832L136.858 35.64C136.41 35.96 135.642 36.248 134.554 36.504C133.466 36.696 132.442 36.888 131.482 37.08C130.586 37.272 130.138 37.496 130.138 37.752L129.274 36.984C128.954 37.56 128.474 37.848 127.834 37.848C127.194 37.848 126.554 37.848 125.914 37.848C125.338 37.848 124.666 38.2 123.898 38.904C123.194 39.608 122.554 40.376 121.978 41.208C121.402 42.104 121.05 42.84 120.922 43.416L120.346 44.664ZM158.26 15C158.068 15 157.556 14.936 156.724 14.808C155.956 14.616 155.572 14.392 155.572 14.136C155.572 13.176 156.052 12.472 157.012 12.024C158.036 11.576 158.868 11.128 159.508 10.68H159.7C160.596 9.976 161.652 9.496 162.868 9.24C164.148 8.984 165.332 8.824 166.42 8.76L166.324 8.856C165.108 9.24 164.02 9.944 163.06 10.968C162.1 11.928 161.204 12.856 160.372 13.752C159.604 14.584 158.9 15 158.26 15ZM145.876 41.688L144.34 39.48C144.276 39.032 144.18 38.616 144.052 38.232C143.924 37.784 143.86 37.336 143.86 36.888C143.86 36.312 143.892 35.736 143.956 35.16C144.02 34.584 144.084 34.008 144.148 33.432L144.82 31.8L144.724 31.704C145.044 30.936 145.364 29.944 145.684 28.728C146.004 27.512 146.388 26.296 146.836 25.08C147.348 23.8 147.956 22.744 148.66 21.912C149.364 21.016 150.228 20.568 151.252 20.568C151.956 20.568 152.756 20.824 153.652 21.336C154.548 21.848 154.996 22.52 154.996 23.352C154.996 23.672 154.74 24.248 154.228 25.08C153.78 25.912 153.236 26.84 152.596 27.864C151.956 28.824 151.316 29.688 150.676 30.456C150.1 31.16 149.684 31.576 149.428 31.704C148.852 32.728 148.052 33.912 147.028 35.256C146.004 36.6 145.492 37.848 145.492 39C145.492 39.448 145.556 39.864 145.684 40.248C145.876 40.632 145.972 41.048 145.972 41.496L145.876 41.688ZM174.027 43.992C173.131 43.992 172.427 43.544 171.915 42.648C171.403 41.752 171.147 40.92 171.147 40.152C171.147 39 171.147 37.88 171.147 36.792C171.211 35.64 171.307 34.52 171.435 33.432L171.243 33.336C171.563 32.504 171.947 31.448 172.395 30.168C172.907 28.824 173.163 27.832 173.163 27.192C172.843 27.512 172.523 27.864 172.203 28.248C171.883 28.568 171.595 28.92 171.339 29.304C170.891 29.752 170.475 30.264 170.091 30.84C169.771 31.416 169.355 31.96 168.843 32.472C168.075 32.664 167.371 33.24 166.731 34.2C166.091 35.096 165.355 35.96 164.523 36.792C163.755 37.624 162.667 38.04 161.259 38.04C160.811 38.04 160.235 38.008 159.531 37.944C158.891 37.816 158.411 37.624 158.091 37.368C157.259 37.176 156.651 36.952 156.267 36.696C155.947 36.376 155.691 35.8 155.499 34.968L155.883 33.72L155.595 32.952C155.915 31.928 156.139 31.192 156.267 30.744C156.459 30.296 156.715 29.912 157.035 29.592C157.419 29.272 158.027 28.792 158.859 28.152C158.923 27.832 159.083 27.608 159.339 27.48C159.659 27.288 159.947 27.16 160.203 27.096L160.299 26.616L161.259 25.464L161.547 25.656L162.123 24.792C162.571 24.472 163.019 24.28 163.467 24.216C163.979 24.088 164.459 23.896 164.907 23.64C165.035 23.128 165.419 22.648 166.059 22.2C166.763 21.752 167.467 21.304 168.171 20.856C168.875 20.408 169.259 19.992 169.323 19.608L169.707 19.704L171.339 18.648L171.819 18.84L173.259 17.976L174.987 17.88L175.275 18.168C175.275 18.616 174.955 19.096 174.315 19.608C173.739 20.056 173.227 20.248 172.779 20.184C171.627 20.44 170.283 21.08 168.747 22.104C167.211 23.128 165.707 24.344 164.234 25.752C162.827 27.096 161.643 28.536 160.683 30.072C159.723 31.544 159.243 32.92 159.243 34.2C159.243 35.416 159.883 36.024 161.163 36.024C162.123 36.024 163.307 35.512 164.715 34.488C166.123 33.4 167.435 32.184 168.651 30.84C169.867 29.496 170.667 28.408 171.051 27.576L172.683 26.328C172.875 25.752 173.387 25.08 174.219 24.312C175.051 23.48 175.595 22.776 175.851 22.2C176.107 21.752 176.234 21.336 176.234 20.952C176.299 20.504 176.619 20.216 177.195 20.088C177.579 19.704 177.995 19.288 178.443 18.84C178.955 18.392 179.147 17.848 179.019 17.208C179.339 16.76 179.659 16.312 179.979 15.864C180.363 15.416 180.683 14.968 180.939 14.52H181.227L181.707 14.136V14.04H182.187L182.475 13.56L182.379 12.504L182.859 12.216L182.763 11.928C182.763 11.864 182.891 11.64 183.147 11.256C183.403 10.808 183.659 10.36 183.915 9.912C184.171 9.464 184.299 9.176 184.299 9.048C184.299 8.408 184.043 8.088 183.531 8.088C183.339 8.088 183.115 8.12 182.859 8.184C182.667 8.248 182.475 8.312 182.283 8.376L182.187 7.896L186.411 3.768V3.672C187.179 3.096 187.883 2.488 188.523 1.848C189.227 1.144 189.995 0.535997 190.827 0.0239983C191.467 0.215998 192.203 0.439998 193.035 0.695998C193.931 0.951999 194.571 1.432 194.955 2.136L195.147 3.384V3.576C195.147 3.832 194.699 4.504 193.803 5.592C192.907 6.68 191.787 7.96 190.443 9.432C189.099 10.904 187.723 12.344 186.315 13.752C184.971 15.16 183.819 16.344 182.859 17.304C181.963 18.264 181.451 18.744 181.323 18.744C181.259 19.192 181.131 19.672 180.939 20.184C180.811 20.632 180.683 21.112 180.555 21.624C180.043 21.752 179.595 22.072 179.211 22.584C178.891 23.096 178.571 23.576 178.251 24.024L178.347 24.216C178.347 24.408 178.091 25.016 177.579 26.04C177.067 27.064 176.459 28.344 175.755 29.88C175.051 31.416 174.443 33.048 173.931 34.776C173.419 36.44 173.163 38.04 173.163 39.576C173.163 40.28 173.259 41.016 173.451 41.784C173.707 42.616 174.059 43.288 174.507 43.8L174.027 43.992ZM186.633 39.672C186.057 39.672 185.353 39.288 184.521 38.52C183.753 37.752 183.113 37.176 182.601 36.792C182.473 35.96 182.249 35.224 181.929 34.584C181.609 33.88 181.449 33.144 181.449 32.376C181.449 31.224 181.865 29.88 182.697 28.344C183.593 26.744 184.713 25.176 186.057 23.64C187.465 22.104 188.873 20.824 190.281 19.8C191.753 18.776 193.065 18.264 194.217 18.264V18.072C195.113 18.264 195.945 18.84 196.713 19.8C197.545 20.76 197.961 21.656 197.961 22.488C197.961 23.256 197.481 24.056 196.521 24.888C195.625 25.656 194.505 26.392 193.161 27.096C191.881 27.736 190.601 28.248 189.321 28.632C188.105 29.016 187.145 29.208 186.441 29.208V29.4C185.993 30.104 185.545 31 185.097 32.088C184.713 33.112 184.521 34.072 184.521 34.968C184.521 35.288 184.617 35.64 184.809 36.024C185.257 36.344 185.833 36.504 186.537 36.504C187.241 36.44 187.817 36.44 188.265 36.504L188.361 36.6L188.649 36.12C189.481 36.056 190.281 35.864 191.049 35.544V34.968H191.625V34.68L192.009 34.776C192.329 34.648 192.553 34.52 192.681 34.392C192.873 34.2 193.097 34.04 193.353 33.912L193.929 34.2V34.104L195.657 32.472H195.753L196.041 32.664V32.568C196.873 31.8 197.769 31.096 198.729 30.456C199.689 29.816 200.393 28.984 200.841 27.96L201.897 27.192L202.089 27.384C202.089 27.832 201.929 28.248 201.609 28.632C201.289 29.016 200.905 29.272 200.457 29.4C199.945 30.616 199.177 31.64 198.153 32.472C197.193 33.304 196.201 34.168 195.177 35.064H194.889L194.793 35.544C193.577 36.376 192.297 37.272 190.953 38.232C189.673 39.192 188.233 39.672 186.633 39.672ZM188.457 27.384H188.649V27.192C189.097 27.064 189.865 26.68 190.953 26.04C192.105 25.4 193.193 24.728 194.217 24.024C195.241 23.256 195.785 22.712 195.849 22.392H195.945L195.849 21.912L195.945 21.432C195.881 21.432 195.753 21.432 195.561 21.432C195.369 21.368 195.209 21.336 195.081 21.336C194.249 21.912 193.417 22.456 192.585 22.968C191.753 23.48 190.921 23.992 190.089 24.504H189.897L189.801 25.272C189.417 25.528 189.129 25.848 188.937 26.232C188.745 26.552 188.585 26.936 188.457 27.384ZM203.049 27.096L202.473 26.904L202.377 26.328L203.337 26.04L203.433 26.328L203.049 27.096Z" fill="#900000"/>
</svg>
