<svg width="44" height="131" viewBox="0 0 44 131" fill="none" xmlns="http://www.w3.org/2000/svg">
<path d="M26 3V103" stroke="white" stroke-width="6" stroke-linecap="round" stroke-linejoin="round"/>
<path d="M11 95.4842L26 110.484L33.5 103L41 95.4842" stroke="white" stroke-width="6" stroke-linecap="round" stroke-linejoin="round"/>
<path d="M28 122C26.96 121.31 27.5794 117.624 26.6092 116.86C22.535 113.658 19.1505 109.887 16.6949 105.836C16.3606 105.266 15.9021 104.674 15.3425 104.088C14.9969 103.728 14.6049 103.376 14.1799 103.045C12.8322 102.013 8.7553 97.8724 7.99733 96.4991C7.86619 96.2384 7.92333 95.1658 7.99733 94.9991C8.07132 94.8324 10.7426 97.5168 10.9973 97.4991C12.1511 97.352 13.128 100.259 14.3579 101.313C14.3773 101.328 14.3993 101.349 14.4187 101.364C15.079 101.932 15.7107 102.513 16.3449 103.091C16.6924 103.396 17.0917 103.67 17.5025 103.888C17.9133 104.105 18.3209 104.257 18.684 104.329C19.5975 104.571 20.6731 104.603 21.6145 105.57C21.7666 105.73 21.8868 105.892 21.9672 106.045C22.0475 106.198 22.0862 106.338 22.0808 106.457C22.0623 106.719 21.7479 106.81 21.8737 107.144C22.0855 107.716 22.6557 108.217 24.9958 109.336C25.8802 109.774 26.7621 110.29 27.6101 110.867L28.0758 111.956C28.1828 112.212 28.2049 112.436 28.1401 112.611C28.1401 112.611 28.4957 114.99 28.4953 115.998C28.4948 116.998 27.4993 120.499 28 122Z" fill="#EE6161"/>
<path d="M16.7097 105.846C19.1627 109.895 21.9285 113.8 26 117C26.9688 117.763 26.9615 121.311 28 122L27.5 117.5C27.0967 117.203 27.3895 116.806 27 116.5C22.9285 113.3 20.1269 109.584 17.6739 105.534C17.3399 104.966 16.8817 104.373 16.3225 103.788C15.9772 103.428 15.5854 103.076 15.1608 102.745C13.8139 101.715 11.7562 100.872 10.9986 99.4993C10.8646 99.2526 10.6594 99.319 10.7293 99.1637C10.5636 99.1415 8.49832 95.9993 7.99853 95.9992C7.99853 95.9992 7.86755 96.7387 7.99853 96.9992C8.75725 98.3714 12.8521 102.028 14.1959 103.058C14.6206 103.389 15.0123 103.74 15.3576 104.1C15.9169 104.685 16.3753 105.277 16.7097 105.846Z" fill="#DE5454"/>
<path d="M28.3006 129.718C28.3246 130.046 28.2886 130.348 28.2005 130.557C28.1124 130.766 27.9795 130.865 27.831 130.833C27.6825 130.801 27.5306 130.639 27.4086 130.384C27.2867 130.129 27.2047 129.802 27.1807 129.474C27.0904 128.237 27.56 127.122 27.56 127.122C27.56 127.122 28.2101 128.479 28.3006 129.718Z" fill="#EE6161"/>
<path d="M18.7018 104.343C19.6149 104.584 20.6902 104.616 21.6308 105.582C21.7828 105.743 21.9029 105.904 21.9831 106.057C22.0634 106.21 22.102 106.351 22.0965 106.469C22.078 106.731 21.7636 106.823 21.8892 107.156C22.1007 107.728 22.6705 108.228 25.0093 109.347C25.8932 109.784 26.7745 110.3 27.6221 110.876L26.9039 109.205C24.5744 108.091 24.0032 107.589 23.7891 107.016C23.6611 106.681 23.9774 106.591 23.9969 106.33C24.0023 106.211 23.9635 106.07 23.8831 105.918C23.8027 105.765 23.6826 105.603 23.5305 105.443C22.5915 104.477 21.5148 104.445 20.6022 104.203C20.2397 104.132 19.8327 103.98 19.4224 103.764C19.0121 103.547 18.613 103.273 18.2656 102.969C17.6319 102.391 16.9997 101.81 16.3409 101.243C15.9924 100.403 15.6917 99.5807 15.4389 98.7768C15.1721 97.9381 14.9752 97.1299 14.7945 96.3324C14.7651 96.1917 14.7688 96.0658 14.8055 95.9592L8.5 94.5C8.04194 94.3706 8.24856 94.8793 8 95C7.93079 94.6817 7.75144 95.1207 8 95C8.17726 95.7965 9.5 97 10.5 98C12 99 13.5 100.5 14.4388 101.381C15.0986 101.948 15.7298 102.528 16.3635 103.107C16.7109 103.411 17.1102 103.685 17.5208 103.902C17.9314 104.119 18.3389 104.271 18.7018 104.343Z" fill="#DFD8E0"/>
</svg>
